<svg width="62" height="62" viewBox="0 0 62 62" fill="none" xmlns="http://www.w3.org/2000/svg">
<circle cx="31" cy="31" r="31" fill="white"/>
<path d="M28.5802 24.5739L28.2223 20.2783C28.1989 19.9974 27.9641 19.7813 27.6822 19.7813H27.1403V19.2393C27.1403 18.3427 26.4109 17.6133 25.5143 17.6133C24.6177 17.6133 23.8883 18.3427 23.8883 19.2393V19.7813H23.3464C23.068 19.7813 22.8348 19.9923 22.8071 20.2693L22.3734 24.6053C22.3582 24.7577 22.4081 24.9094 22.5109 25.0229C22.6136 25.1364 22.7596 25.2012 22.9127 25.2012H28.0435C28.044 25.2012 28.0444 25.2012 28.0449 25.2012C28.3442 25.2012 28.5869 24.9585 28.5869 24.6592C28.5869 24.6302 28.5846 24.6017 28.5802 24.5739ZM24.9723 19.2393C24.9723 18.9404 25.2154 18.6973 25.5143 18.6973C25.8132 18.6973 26.0563 18.9404 26.0563 19.2393V19.7813H24.9723V19.2393ZM23.5116 24.1173L23.8369 20.8653H27.1835L27.4544 24.1173H23.5116Z" fill="#3E3E3E"/>
<path d="M42.9625 18.8237C42.9612 18.8105 42.9588 18.7976 42.9566 18.7848C42.9558 18.7802 42.9554 18.7756 42.9545 18.7711C42.9515 18.7558 42.9475 18.7408 42.9431 18.7259C42.9425 18.7239 42.9422 18.7218 42.9416 18.7199C42.9369 18.7047 42.9315 18.6899 42.9256 18.6753C42.9249 18.6736 42.9244 18.6718 42.9237 18.6701C42.9179 18.6561 42.9114 18.6426 42.9044 18.6293C42.9032 18.627 42.9023 18.6245 42.901 18.6222C42.8944 18.6098 42.887 18.5978 42.8794 18.586C42.8774 18.5829 42.8757 18.5797 42.8736 18.5766C42.8661 18.5653 42.8578 18.5545 42.8494 18.5438C42.8469 18.5406 42.8447 18.5371 42.8421 18.5339C42.8308 18.5203 42.8189 18.5071 42.8064 18.4946L38.4709 14.1588C38.4584 14.1463 38.4452 14.1344 38.4315 14.1231C38.4279 14.1203 38.4241 14.1178 38.4206 14.115C38.4102 14.1069 38.3998 14.0989 38.3889 14.0916C38.3855 14.0892 38.3819 14.0874 38.3784 14.0852C38.3669 14.0779 38.3554 14.0707 38.3434 14.0642C38.3407 14.0628 38.338 14.0617 38.3353 14.0603C38.3222 14.0536 38.309 14.0471 38.2954 14.0415C38.2934 14.0407 38.2914 14.0401 38.2895 14.0394C38.2751 14.0336 38.2605 14.0282 38.2455 14.0236C38.2434 14.023 38.2411 14.0225 38.239 14.022C38.2242 14.0177 38.2094 14.0137 38.1942 14.0107C38.1897 14.0098 38.185 14.0094 38.1804 14.0086C38.1676 14.0064 38.1548 14.0041 38.1416 14.0028C38.1237 14.0009 38.1056 14 38.0875 14H18.5768C18.2775 14 18.0348 14.2427 18.0348 14.542V47.3126C18.0348 47.612 18.2775 47.8546 18.5768 47.8546H30.8619C31.1612 47.8546 31.4039 47.612 31.4039 47.3126C31.4039 47.0133 31.1612 46.7707 30.8619 46.7707H19.1188V15.084H37.5455V18.8778C37.5455 19.1771 37.7882 19.4198 38.0875 19.4198H41.8811V46.7707H38.8111C38.5118 46.7707 38.2691 47.0133 38.2691 47.3126C38.2691 47.612 38.5118 47.8546 38.8111 47.8546H42.4231C42.7225 47.8546 42.9651 47.612 42.9651 47.3126V18.8778C42.9651 18.8596 42.9643 18.8416 42.9625 18.8237ZM38.6295 18.3358V15.8505L41.1147 18.3358H38.6295Z" fill="#3E3E3E"/>
<path d="M38.0875 29.4282H22.9126C22.6133 29.4282 22.3706 29.6709 22.3706 29.9702C22.3706 30.2695 22.6133 30.5122 22.9126 30.5122H38.0875C38.3868 30.5122 38.6295 30.2695 38.6295 29.9702C38.6295 29.6709 38.3868 29.4282 38.0875 29.4282Z" fill="#3E3E3E"/>
<path d="M38.0875 32.3193H22.9126C22.6133 32.3193 22.3706 32.562 22.3706 32.8613C22.3706 33.1607 22.6133 33.4033 22.9126 33.4033H38.0875C38.3868 33.4033 38.6295 33.1607 38.6295 32.8613C38.6295 32.562 38.3868 32.3193 38.0875 32.3193Z" fill="#FF4444"/>
<path d="M38.0875 35.21H22.9126C22.6133 35.21 22.3706 35.4526 22.3706 35.752C22.3706 36.0513 22.6133 36.2939 22.9126 36.2939H38.0875C38.3868 36.2939 38.6295 36.0513 38.6295 35.752C38.6295 35.4526 38.3868 35.21 38.0875 35.21Z" fill="#3E3E3E"/>
<path d="M29.4161 38.1006H22.9126C22.6133 38.1006 22.3706 38.3433 22.3706 38.6426C22.3706 38.9419 22.6133 39.1846 22.9126 39.1846H29.4161C29.7154 39.1846 29.9581 38.9419 29.9581 38.6426C29.9581 38.3433 29.7154 38.1006 29.4161 38.1006Z" fill="#3E3E3E"/>
<path d="M38.6304 43.3398C38.6304 41.2478 36.9284 39.5459 34.8364 39.5459C32.7444 39.5459 31.0425 41.2478 31.0425 43.3398C31.0425 44.5455 31.6085 45.6208 32.4879 46.3162V50.4579C32.4879 50.4636 32.4886 50.4692 32.4888 50.475C32.4892 50.4861 32.4895 50.497 32.4905 50.5081C32.4912 50.5158 32.4924 50.5234 32.4934 50.5311C32.4948 50.541 32.4961 50.5509 32.498 50.5607C32.4996 50.5689 32.5017 50.577 32.5036 50.5851C32.5058 50.5942 32.5079 50.6032 32.5106 50.6121C32.5131 50.6206 32.516 50.6288 32.519 50.6372C32.5219 50.6455 32.5247 50.6538 32.528 50.6619C32.5316 50.6706 32.5356 50.6789 32.5395 50.6874C32.5431 50.6949 32.5465 50.7025 32.5504 50.7099C32.5551 50.7188 32.5602 50.7273 32.5653 50.7359C32.5693 50.7425 32.5731 50.7492 32.5774 50.7557C32.5834 50.7649 32.59 50.7735 32.5965 50.7823C32.6 50.787 32.6031 50.7919 32.6067 50.7965C32.6075 50.7974 32.6083 50.7982 32.6091 50.7991C32.6212 50.8141 32.6341 50.8285 32.6477 50.8421C32.6515 50.8459 32.6557 50.8493 32.6597 50.8529C32.6696 50.8623 32.6797 50.8714 32.6904 50.88C32.6967 50.8851 32.7033 50.8897 32.7099 50.8946C32.7188 50.9011 32.7276 50.9074 32.7368 50.9134C32.7438 50.9178 32.7508 50.922 32.7579 50.9261C32.7675 50.9318 32.7774 50.937 32.7873 50.942C32.7941 50.9454 32.8009 50.9488 32.8079 50.9519C32.819 50.9569 32.8303 50.9613 32.8418 50.9656C32.848 50.9679 32.8541 50.9704 32.8604 50.9724C32.8732 50.9767 32.8863 50.9801 32.8996 50.9834C32.9048 50.9847 32.91 50.9863 32.9153 50.9874C32.9299 50.9906 32.9448 50.9928 32.9598 50.9948C32.964 50.9953 32.9681 50.9962 32.9723 50.9967C32.99 50.9986 33.008 50.9995 33.0262 50.9996C33.0276 50.9996 33.029 50.9999 33.0304 50.9999C33.0309 50.9999 33.0314 50.9997 33.032 50.9997C33.0585 50.9996 33.0843 50.997 33.1096 50.9934C33.1151 50.9926 33.1205 50.9918 33.126 50.9908C33.1518 50.9863 33.1768 50.9799 33.2012 50.9718C33.2057 50.9703 33.21 50.9686 33.2144 50.967C33.2404 50.9576 33.2657 50.9467 33.2897 50.9337C33.2905 50.9332 33.2913 50.9326 33.2922 50.9321C33.3175 50.9182 33.3413 50.902 33.3638 50.8843C33.3654 50.8831 33.3671 50.8823 33.3687 50.8811L34.8367 49.7067L36.3046 50.8811C36.3062 50.8823 36.3078 50.883 36.3093 50.8842C36.332 50.902 36.356 50.9182 36.3812 50.9322C36.382 50.9327 36.3828 50.9332 36.3836 50.9337C36.4076 50.9468 36.4329 50.9577 36.4589 50.967C36.4633 50.9686 36.4676 50.9704 36.472 50.9718C36.4964 50.9799 36.5215 50.9863 36.5473 50.9909C36.5527 50.9918 36.5581 50.9926 36.5636 50.9934C36.589 50.9971 36.6148 50.9996 36.6413 50.9997C36.6418 50.9997 36.6423 50.9999 36.6429 50.9999C36.6442 50.9999 36.6457 50.9996 36.647 50.9996C36.6652 50.9995 36.6832 50.9986 36.701 50.9967C36.7051 50.9962 36.7091 50.9953 36.7132 50.9948C36.7283 50.9928 36.7433 50.9905 36.7579 50.9874C36.7631 50.9862 36.7682 50.9847 36.7734 50.9834C36.7867 50.9801 36.8 50.9766 36.8129 50.9723C36.819 50.9703 36.825 50.9678 36.8312 50.9657C36.8427 50.9613 36.8542 50.9569 36.8654 50.9519C36.8722 50.9488 36.8789 50.9454 36.8857 50.942C36.8958 50.937 36.9057 50.9317 36.9154 50.9261C36.9224 50.922 36.9295 50.9178 36.9364 50.9133C36.9456 50.9073 36.9545 50.901 36.9633 50.8945C36.9699 50.8897 36.9765 50.885 36.9829 50.8799C36.9936 50.8714 37.0036 50.8622 37.0135 50.8529C37.0175 50.8493 37.0217 50.8459 37.0255 50.842C37.0392 50.8284 37.052 50.814 37.0642 50.799C37.065 50.7981 37.0658 50.7974 37.0665 50.7964C37.0702 50.7919 37.0732 50.787 37.0767 50.7823C37.0833 50.7736 37.0899 50.7649 37.096 50.7557C37.1002 50.7492 37.104 50.7424 37.108 50.7359C37.1132 50.7273 37.1184 50.7187 37.1231 50.7099C37.127 50.7025 37.1304 50.695 37.1338 50.6875C37.1378 50.679 37.1418 50.6706 37.1453 50.6619C37.1486 50.6537 37.1515 50.6454 37.1543 50.6372C37.1573 50.6288 37.1603 50.6205 37.1628 50.612C37.1655 50.603 37.1676 50.594 37.1697 50.585C37.1717 50.5769 37.1738 50.5689 37.1754 50.5606C37.1773 50.5507 37.1786 50.5408 37.1799 50.5309C37.1809 50.5233 37.1822 50.5158 37.1829 50.508C37.1839 50.497 37.1842 50.4859 37.1846 50.4748C37.1848 50.4691 37.1854 50.4636 37.1854 50.4578L37.1853 46.3162C38.0644 45.6208 38.6304 44.5455 38.6304 43.3398ZM35.1829 48.5957C35.1829 48.5956 35.1829 48.5956 35.1829 48.5955L35.1752 48.5894C35.1712 48.5863 35.167 48.5837 35.1631 48.5806C35.1535 48.5733 35.1438 48.5662 35.1339 48.5596C35.128 48.5558 35.122 48.5524 35.116 48.5488C35.1068 48.5433 35.0977 48.5377 35.0883 48.5328C35.0808 48.5289 35.0732 48.5254 35.0657 48.5219C35.0575 48.5181 35.0493 48.5142 35.041 48.5109C35.0322 48.5073 35.0232 48.5042 35.0143 48.5011C35.0069 48.4985 34.9995 48.4959 34.9919 48.4936C34.9825 48.4908 34.9729 48.4885 34.9633 48.4862C34.956 48.4844 34.9485 48.4826 34.9411 48.481C34.9317 48.4792 34.9223 48.4779 34.9128 48.4766C34.9049 48.4754 34.8968 48.4742 34.8888 48.4735C34.8801 48.4726 34.8715 48.4722 34.8629 48.4718C34.8538 48.4714 34.8449 48.4709 34.8358 48.4709C34.8282 48.4709 34.8206 48.4714 34.8129 48.4717C34.803 48.4722 34.793 48.4726 34.783 48.4736C34.7762 48.4742 34.7695 48.4753 34.7628 48.4762C34.7522 48.4776 34.7415 48.4792 34.731 48.4813C34.7247 48.4826 34.7184 48.4841 34.7121 48.4856C34.7015 48.4881 34.691 48.4907 34.6804 48.4938C34.6738 48.4959 34.6673 48.4982 34.6607 48.5005C34.6509 48.5038 34.6412 48.5072 34.6316 48.5111C34.6238 48.5142 34.6163 48.5179 34.6087 48.5214C34.6006 48.5251 34.5925 48.5288 34.5845 48.533C34.5754 48.5378 34.5665 48.5432 34.5576 48.5485C34.5514 48.5523 34.5452 48.5558 34.5391 48.5597C34.5292 48.5663 34.5195 48.5735 34.5099 48.5808C34.5059 48.5839 34.5018 48.5864 34.4979 48.5895L34.4903 48.5956C34.4903 48.5957 34.4901 48.5957 34.49 48.5959L33.5719 49.3304V46.9166C33.9677 47.0569 34.3931 47.1341 34.8364 47.1341C35.2797 47.1341 35.7051 47.057 36.101 46.9166L36.1011 49.3302L35.1829 48.5957ZM34.8364 46.0498C33.3421 46.0498 32.1265 44.8342 32.1265 43.3398C32.1265 41.8455 33.3421 40.6299 34.8364 40.6299C36.3307 40.6299 37.5464 41.8455 37.5464 43.3398C37.5464 44.8342 36.3307 46.0498 34.8364 46.0498Z" fill="#3E3E3E"/>
<path d="M34.8364 41.7139C33.9398 41.7139 33.2104 42.4432 33.2104 43.3398C33.2104 44.2364 33.9398 44.9658 34.8364 44.9658C35.733 44.9658 36.4624 44.2364 36.4624 43.3398C36.4624 42.4432 35.733 41.7139 34.8364 41.7139ZM34.8364 43.8818C34.5375 43.8818 34.2944 43.6387 34.2944 43.3398C34.2944 43.041 34.5375 42.7979 34.8364 42.7979C35.1353 42.7979 35.3784 43.041 35.3784 43.3398C35.3784 43.6387 35.1353 43.8818 34.8364 43.8818Z" fill="#3E3E3E"/>
</svg>
