<svg width="62" height="62" viewBox="0 0 62 62" fill="none" xmlns="http://www.w3.org/2000/svg">
<circle cx="31" cy="31" r="31" fill="white"/>
<g clip-path="url(#clip0)">
<path d="M40.9054 35.8833C40.6138 35.8833 40.3776 36.1196 40.3776 36.4111V38.4765C39.7331 38.6967 39.2682 39.3079 39.2682 40.0259C39.2682 40.9287 40.0027 41.6631 40.9054 41.6631C41.1645 41.6631 41.4097 41.6023 41.6277 41.4947L43.3836 43.2507C43.4867 43.3537 43.6219 43.4052 43.7569 43.4052C43.892 43.4052 44.0271 43.3537 44.1302 43.2507C44.3364 43.0445 44.3364 42.7103 44.1302 42.5042L42.3743 40.7482C42.4819 40.5302 42.5427 40.2851 42.5427 40.026C42.5427 39.3079 42.0778 38.6968 41.4333 38.4766V36.4112C41.4332 36.1196 41.197 35.8833 40.9054 35.8833ZM41.4869 40.0259C41.4869 40.3466 41.226 40.6075 40.9054 40.6075C40.5848 40.6075 40.3239 40.3466 40.3239 40.0259C40.3239 39.7053 40.5848 39.4444 40.9054 39.4444C41.226 39.4444 41.4869 39.7053 41.4869 40.0259Z" fill="#3E3E3E"/>
<path d="M26.5173 24.7388C26.2463 24.6308 25.9395 24.7633 25.8318 25.0341L24.0235 29.5808C23.9157 29.8517 24.048 30.1586 24.3189 30.2663C24.3829 30.2918 24.4488 30.3038 24.5138 30.3038C24.7237 30.3038 24.9221 30.1778 25.0045 29.9709L26.8128 25.4243C26.9205 25.1534 26.7882 24.8464 26.5173 24.7388Z" fill="#3E3E3E"/>
<path d="M28.5755 30.2593C28.6446 30.2897 28.7167 30.3041 28.7876 30.3041C28.9906 30.3041 29.1842 30.1863 29.2711 29.9886L31.2698 25.4419C31.3416 25.2787 31.326 25.0902 31.2286 24.9409C31.1311 24.7917 30.9649 24.7017 30.7866 24.7017H28.2854C27.9939 24.7017 27.7576 24.9379 27.7576 25.2295C27.7576 25.5211 27.9939 25.7573 28.2854 25.7573H29.9779L28.3048 29.5637C28.1874 29.8305 28.3086 30.142 28.5755 30.2593Z" fill="#FF4444"/>
<path d="M21.9341 30.1788C22.2257 30.1788 22.462 29.9426 22.462 29.651V28.6821H22.747C23.0385 28.6821 23.2749 28.4458 23.2749 28.1542C23.2749 27.8627 23.0385 27.6264 22.747 27.6264H22.462V25.2354C22.462 24.903 22.2476 24.6177 21.9285 24.525C21.6096 24.4327 21.276 24.5587 21.0983 24.8393C20.4456 25.8695 19.2412 27.8612 19.2291 27.8812C19.1305 28.0442 19.1274 28.2476 19.2211 28.4135C19.3147 28.5794 19.4903 28.682 19.6808 28.682H21.4063V29.6509C21.4063 29.9426 21.6426 30.1788 21.9341 30.1788ZM20.6188 27.6264C20.8493 27.2479 21.1335 26.7829 21.4063 26.3407V27.6264H20.6188Z" fill="#FF4444"/>
<path d="M17.56 27.1095C16.84 28.1382 16.4104 28.7007 16.1795 29.003C15.892 29.3795 15.7608 29.5513 15.8506 29.8432C15.9034 30.0149 16.0334 30.1466 16.2073 30.2046C16.2773 30.2279 16.3444 30.2502 17.2322 30.2502C17.579 30.2502 18.0512 30.2468 18.6977 30.2387C18.9892 30.235 19.2225 29.9958 19.2188 29.7043C19.2152 29.4151 18.9796 29.1831 18.6911 29.1831C18.6889 29.1831 18.6866 29.1831 18.6844 29.1832C18.2345 29.1888 17.7576 29.1925 17.3593 29.1934C17.6108 28.8568 17.9581 28.3818 18.4249 27.7149C18.7163 27.2984 18.9065 26.9046 18.99 26.5444C18.994 26.5272 18.9972 26.5096 18.9994 26.492L19.0218 26.3162C19.0247 26.2941 19.0261 26.2716 19.0261 26.2493C19.0261 25.3168 18.2674 24.5581 17.3349 24.5581C16.5286 24.5581 15.8307 25.1317 15.6754 25.9221C15.6192 26.2081 15.8055 26.4856 16.0916 26.5418C16.3778 26.5979 16.6551 26.4117 16.7113 26.1256C16.7696 25.8291 17.0318 25.6139 17.3349 25.6139C17.6758 25.6139 17.9548 25.8835 17.9698 26.2208L17.9559 26.3295C17.8994 26.5524 17.7663 26.8146 17.56 27.1095Z" fill="#FF4444"/>
<path d="M20.6877 32.8301C20.6877 32.283 20.2427 31.8379 19.6955 31.8379H17.3785C16.8315 31.8379 16.3864 32.283 16.3864 32.8301V35.1471C16.3864 35.6941 16.8314 36.1393 17.3785 36.1393H19.6955C20.2426 36.1393 20.6877 35.6942 20.6877 35.1471V32.8301ZM19.6321 35.0835H17.4421V32.8936H19.6321V35.0835H19.6321Z" fill="#3E3E3E"/>
<path d="M26.2108 32.8301C26.2108 32.283 25.7657 31.8379 25.2186 31.8379H22.9016C22.3546 31.8379 21.9094 32.283 21.9094 32.8301V35.1471C21.9094 35.6941 22.3545 36.1393 22.9016 36.1393H25.2186C25.7657 36.1393 26.2108 35.6942 26.2108 35.1471V32.8301ZM25.1551 35.0835H22.9651V32.8936H25.1551V35.0835Z" fill="#3E3E3E"/>
<path d="M31.7338 32.8301C31.7338 32.283 31.2887 31.8379 30.7417 31.8379H28.4247C27.8776 31.8379 27.4325 32.283 27.4325 32.8301V35.1471C27.4325 35.6941 27.8776 36.1393 28.4247 36.1393H30.7417C31.2887 36.1393 31.7338 35.6942 31.7338 35.1471V32.8301ZM30.6781 35.0835H28.4882V32.8936H30.6781V35.0835Z" fill="#3E3E3E"/>
<path d="M36.0826 29.0641V26.7471C36.0826 26.2 35.6376 25.7549 35.0904 25.7549H32.7734C32.2264 25.7549 31.7812 26.2 31.7812 26.7471V29.0641C31.7812 29.6112 32.2263 30.0563 32.7734 30.0563H35.0904C35.6376 30.0563 36.0826 29.6113 36.0826 29.0641ZM35.027 29.0007H32.837V26.8106H35.027V29.0007Z" fill="#3E3E3E"/>
<path d="M38.2648 25.7554C37.7177 25.7554 37.2726 26.2004 37.2726 26.7476V29.0646C37.2726 29.6117 37.7177 30.0568 38.2648 30.0568H40.5818C41.1288 30.0568 41.574 29.6118 41.574 29.0646V26.7476C41.574 26.2005 41.1289 25.7554 40.5818 25.7554H38.2648ZM40.5182 29.0011H38.3283V26.811H40.5182V29.0011Z" fill="#3E3E3E"/>
<path d="M17.3785 41.338H19.6955C20.2426 41.338 20.6877 40.8929 20.6877 40.3458V38.0288C20.6877 37.4818 20.2427 37.0366 19.6955 37.0366H17.3785C16.8315 37.0366 16.3864 37.4817 16.3864 38.0288V40.3458C16.3864 40.8929 16.8315 41.338 17.3785 41.338ZM17.4421 38.0923H19.6321V40.2823H17.4421V38.0923Z" fill="#3E3E3E"/>
<path d="M22.9016 41.338H25.2186C25.7657 41.338 26.2108 40.8929 26.2108 40.3458V38.0288C26.2108 37.4818 25.7657 37.0366 25.2186 37.0366H22.9016C22.3546 37.0366 21.9094 37.4817 21.9094 38.0288V40.3458C21.9095 40.8929 22.3546 41.338 22.9016 41.338ZM22.9652 38.0923H25.1552V40.2823H22.9652V38.0923Z" fill="#3E3E3E"/>
<path d="M30.7417 37.0366H28.4247C27.8776 37.0366 27.4325 37.4817 27.4325 38.0288V40.3458C27.4325 40.8929 27.8776 41.338 28.4247 41.338H30.7417C31.2887 41.338 31.7338 40.8929 31.7338 40.3458V38.0288C31.7338 37.4818 31.2887 37.0366 30.7417 37.0366ZM30.6781 40.2823H28.4882V38.0924H30.6781V40.2823Z" fill="#3E3E3E"/>
<path d="M31.7925 42.7569H16.6479C15.2185 42.7569 14.0557 41.5941 14.0557 40.1648V35.7998C14.0557 35.5082 13.8193 35.272 13.5278 35.272C13.2363 35.272 13 35.5082 13 35.7998V40.1648C13 42.1762 14.6364 43.8126 16.6479 43.8126H31.7925C32.084 43.8126 32.3203 43.5764 32.3203 43.2848C32.3203 42.9932 32.084 42.7569 31.7925 42.7569Z" fill="#3E3E3E"/>
<path d="M13.5278 34.0782C13.8193 34.0782 14.0557 33.842 14.0557 33.5504V22.9614H37.8005C38.092 22.9614 38.3283 22.7251 38.3283 22.4335C38.3283 22.142 38.092 21.9057 37.8005 21.9057H14.0557V20.155C14.0557 18.7257 15.2185 17.5629 16.6479 17.5629H20.3233V18.6884C20.3233 19.5028 20.9858 20.1653 21.8002 20.1653C22.6145 20.1653 23.2771 19.5028 23.2771 18.6884V17.5629H33.8775V18.6884C33.8775 19.5028 34.54 20.1653 35.3543 20.1653C36.1687 20.1653 36.8312 19.5028 36.8312 18.6884V17.5629H40.5066C41.936 17.5629 43.0988 18.7257 43.0988 20.155V21.9057H40.0499C39.7583 21.9057 39.5221 22.142 39.5221 22.4335C39.5221 22.7251 39.7583 22.9614 40.0499 22.9614H43.0988V30.7375C43.0988 31.0291 43.3351 31.2653 43.6267 31.2653C43.9182 31.2653 44.1545 31.0291 44.1545 30.7375V20.155C44.1545 18.1436 42.5181 16.5072 40.5066 16.5072H36.8312V15.3568C36.8312 14.5424 36.1687 13.8799 35.3543 13.8799C34.54 13.8799 33.8775 14.5424 33.8775 15.3568V16.5073H23.2771V15.3568C23.2771 14.5424 22.6145 13.8799 21.8002 13.8799C20.9858 13.8799 20.3233 14.5424 20.3233 15.3568V16.5073H16.6479C14.6364 16.5072 13 18.1436 13 20.155V33.5504C13 33.842 13.2363 34.0782 13.5278 34.0782ZM34.9332 15.3568C34.9332 15.1245 35.1221 14.9356 35.3543 14.9356C35.5866 14.9356 35.7755 15.1245 35.7755 15.3568V18.6885C35.7755 18.9208 35.5866 19.1097 35.3543 19.1097C35.1221 19.1097 34.9332 18.9207 34.9332 18.6885V15.3568ZM21.379 15.3568C21.379 15.1245 21.5679 14.9356 21.8002 14.9356C22.0324 14.9356 22.2214 15.1245 22.2214 15.3568V18.6885C22.2214 18.9208 22.0324 19.1097 21.8002 19.1097C21.5679 19.1097 21.379 18.9207 21.379 18.6885V15.3568Z" fill="#3E3E3E"/>
<path d="M48.7135 37.8857C48.6365 37.6046 48.3464 37.439 48.0651 37.5158C47.7839 37.5928 47.6182 37.8831 47.6951 38.1642C47.8142 38.5996 47.8903 39.0463 47.9239 39.4978H47.0881C46.7965 39.4978 46.5602 39.7341 46.5602 40.0257C46.5602 40.3172 46.7965 40.5535 47.0881 40.5535H47.9245C47.8094 42.0981 47.1937 43.5053 46.2394 44.6134L45.6504 44.0243C45.4442 43.8182 45.11 43.8181 44.9039 44.0242C44.6977 44.2304 44.6977 44.5646 44.9039 44.7707L45.4929 45.3598C44.385 46.3141 42.9777 46.9298 41.4331 47.0449V46.2083C41.4331 45.9167 41.1968 45.6804 40.9052 45.6804C40.6137 45.6804 40.3774 45.9167 40.3774 46.2083V47.0449C38.8328 46.9298 37.4256 46.3141 36.3176 45.3598L36.9068 44.7707C37.1129 44.5644 37.1129 44.2303 36.9068 44.0241C36.7006 43.8181 36.3664 43.8181 36.1603 44.0241L35.5711 44.6133C34.6169 43.5053 34.0011 42.0981 33.8861 40.5535H34.7226C35.0141 40.5535 35.2504 40.3172 35.2504 40.0257C35.2504 39.7341 35.0141 39.4978 34.7226 39.4978H33.8861C34.0011 37.9532 34.6169 36.5459 35.5711 35.438L36.1603 36.0271C36.2633 36.1301 36.3984 36.1817 36.5335 36.1817C36.6685 36.1817 36.8037 36.1301 36.9068 36.027C37.1129 35.8209 37.1129 35.4867 36.9067 35.2806L36.3176 34.6915C37.4256 33.7373 38.8329 33.1215 40.3775 33.0065V33.843C40.3775 34.1346 40.6137 34.3708 40.9053 34.3708C41.1969 34.3708 41.4332 34.1346 41.4332 33.843V33.007C42.9513 33.1194 44.3675 33.7135 45.4967 34.6877L44.9039 35.2806C44.6977 35.4868 44.6977 35.821 44.9039 36.0271C45.007 36.1301 45.1421 36.1817 45.2772 36.1817C45.4122 36.1817 45.5473 36.1301 45.6504 36.0271L46.242 35.4355C46.4606 35.6903 46.6635 35.9621 46.8474 36.2509C47.004 36.4968 47.3301 36.5692 47.5761 36.4126C47.822 36.2561 47.8944 35.9298 47.7379 35.6839C46.2417 33.334 43.6874 31.9312 40.9053 31.9312C36.4419 31.9312 32.8107 35.5624 32.8107 40.0258C32.8107 44.4892 36.4419 48.1203 40.9053 48.1203C45.3687 48.1203 49 44.4891 49 40.0257C49 39.3009 48.9035 38.5809 48.7135 37.8857Z" fill="#3E3E3E"/>
</g>
<defs>
<clipPath id="clip0">
<rect width="36" height="36" fill="white" transform="translate(13 13)"/>
</clipPath>
</defs>
</svg>
