<svg width="62" height="62" viewBox="0 0 62 62" fill="none" xmlns="http://www.w3.org/2000/svg">
<circle cx="31" cy="31" r="31" fill="white"/>
<g clip-path="url(#clip0)">
<path d="M48.6397 15.6767L40.2397 12.0485C40.0881 11.9825 39.916 11.9825 39.7645 12.0485L31.3645 15.6767C31.1455 15.7723 31.0041 15.9886 31.0045 16.2275V20.3993H23.7997C23.1369 20.3993 22.5997 20.9366 22.5997 21.5993V27.5993H18.2683C17.39 27.5991 16.5818 28.0787 16.1611 28.8497L13.2925 34.1093C13.1007 34.4619 13.0001 34.8569 12.9997 35.2583V38.9993C13.0012 39.4435 13.1681 39.8713 13.4677 40.1993C12.9883 40.7249 12.8651 41.4842 13.1537 42.1344C13.4424 42.7846 14.0883 43.2024 14.7997 43.1993H16.8073C16.2773 44.6916 16.7847 46.355 18.0574 47.2974C19.3301 48.2397 21.0692 48.2397 22.3419 47.2974C23.6146 46.355 24.1221 44.6916 23.5921 43.1993H34.8073C34.2773 44.6916 34.7847 46.355 36.0574 47.2974C37.3301 48.2397 39.0692 48.2397 40.3419 47.2974C41.6146 46.355 42.1221 44.6916 41.5921 43.1993H43.5997C44.5938 43.1993 45.3997 42.3934 45.3997 41.3993C45.3986 41.1316 45.3371 40.8676 45.2197 40.6271C45.335 40.5147 45.4 40.3604 45.3997 40.1993V30.5993L46.4263 29.8679C48.0352 28.7261 48.9936 26.8776 48.9997 24.9047V16.2275C49 15.9886 48.8586 15.7723 48.6397 15.6767ZM22.5997 39.5993H14.7997C14.4683 39.5993 14.1997 39.3307 14.1997 38.9993V38.3993H15.3997C16.0624 38.3993 16.5997 37.862 16.5997 37.1993V35.9993H18.3997C19.3938 35.9993 20.1997 35.1934 20.1997 34.1993V28.7993H22.5997V39.5993ZM15.3997 35.9993V37.1993H14.1997V35.9993H15.3997ZM17.2147 29.4245C17.425 29.039 17.8291 28.7992 18.2683 28.7993H18.9997V34.1993C18.9997 34.5307 18.731 34.7993 18.3997 34.7993H14.3011C14.3138 34.7601 14.3289 34.7216 14.3461 34.6841L17.2147 29.4245ZM22.5997 44.3993C22.5997 45.7248 21.5252 46.7993 20.1997 46.7993C18.8742 46.7993 17.7997 45.7248 17.7997 44.3993C17.7995 43.9774 17.9122 43.563 18.1261 43.1993H22.2733C22.4871 43.563 22.5998 43.9774 22.5997 44.3993ZM40.5997 44.3993C40.5997 45.7248 39.5252 46.7993 38.1997 46.7993C36.8742 46.7993 35.7997 45.7248 35.7997 44.3993C35.7995 43.9774 35.9122 43.563 36.1261 43.1993H40.2733C40.4871 43.563 40.5998 43.9774 40.5997 44.3993ZM43.5997 41.9993H14.7997C14.4683 41.9993 14.1997 41.7307 14.1997 41.3993C14.1997 41.0679 14.4683 40.7993 14.7997 40.7993H43.5997C43.931 40.7993 44.1997 41.0679 44.1997 41.3993C44.1997 41.7307 43.931 41.9993 43.5997 41.9993ZM44.1997 37.4285L42.9997 36.8285V35.1701L44.1997 34.5701V37.4285ZM44.1997 33.2285L42.1315 34.2593C41.9271 34.3614 41.7984 34.5708 41.7997 34.7993V37.1993C41.7984 37.4278 41.9271 37.6372 42.1315 37.7393L44.1997 38.7701V39.5993H23.7997V21.5993H30.9997V24.9047C31.0058 26.8776 31.9642 28.7261 33.5731 29.8679L39.3787 34.0013C39.7506 34.2653 40.2488 34.2653 40.6207 34.0013L44.1997 31.4531V33.2285ZM47.7997 24.9047C47.7938 26.4895 47.0231 27.9739 45.7303 28.8905L39.9997 32.9699L34.2691 28.8899C32.9764 27.9734 32.2057 26.4893 32.1997 24.9047V16.6223L39.9997 13.2527L47.7997 16.6223V24.9047Z" fill="#3E3E3E"/>
<path d="M39.76 14.6634L33.76 17.2554C33.5411 17.3509 33.3997 17.5673 33.4 17.8062V24.9054C33.4057 26.1017 33.9884 27.2218 34.9648 27.9132L39.652 31.2498C39.8603 31.3981 40.1397 31.3981 40.348 31.2498L45.0352 27.9138C46.0116 27.2221 46.5943 26.1019 46.6 24.9054V17.8062C46.6004 17.5673 46.459 17.3509 46.24 17.2554L40.24 14.6634C40.087 14.5966 39.913 14.5966 39.76 14.6634ZM45.4 18.2034V24.9054C45.3947 25.714 44.9994 26.4703 44.3386 26.9364L40 30.0252L35.6614 26.9364C35.0005 26.4704 34.6053 25.714 34.6 24.9054V18.2004L40 15.8676L45.4 18.2034Z" fill="#3E3E3E"/>
<path d="M36.7599 23.5199C36.5884 23.3913 36.3614 23.3639 36.1642 23.4482C35.9671 23.5324 35.8299 23.7153 35.8042 23.9282C35.7786 24.141 35.8684 24.3513 36.0399 24.4799L38.4399 26.2799C38.6992 26.4745 39.066 26.428 39.2685 26.1749L44.0685 20.1749C44.273 19.916 44.23 19.5406 43.9723 19.3345C43.7146 19.1285 43.339 19.1691 43.1313 19.4255L38.6949 24.9713L36.7599 23.5199Z" fill="#FF4444"/>
<path d="M20.2 44.9998C20.5313 44.9998 20.8 44.7312 20.8 44.3998C20.8 44.0684 20.5313 43.7998 20.2 43.7998C19.8686 43.7998 19.6 44.0684 19.6 44.3998C19.6 44.7312 19.8686 44.9998 20.2 44.9998Z" fill="#3E3E3E"/>
<path d="M38.2 44.9998C38.5313 44.9998 38.8 44.7312 38.8 44.3998C38.8 44.0684 38.5313 43.7998 38.2 43.7998C37.8686 43.7998 37.6 44.0684 37.6 44.3998C37.6 44.7312 37.8686 44.9998 38.2 44.9998Z" fill="#3E3E3E"/>
</g>
<defs>
<clipPath id="clip0">
<rect width="36" height="36" fill="white" transform="translate(13 12)"/>
</clipPath>
</defs>
</svg>
