<svg width="70" height="70" viewBox="0 0 70 70" fill="none" xmlns="http://www.w3.org/2000/svg">
<path d="M15.0857 52.582H18.5037C18.6114 52.582 18.7181 52.5608 18.8176 52.5196C18.9171 52.4784 19.0075 52.4179 19.0837 52.3418C19.1599 52.2656 19.2203 52.1752 19.2615 52.0756C19.3028 51.9761 19.324 51.8694 19.324 51.7617C19.324 51.654 19.3028 51.5473 19.2615 51.4478C19.2203 51.3483 19.1599 51.2578 19.0837 51.1817C19.0075 51.1055 18.9171 51.0451 18.8176 51.0038C18.7181 50.9626 18.6114 50.9414 18.5037 50.9414H15.0857C14.978 50.9414 14.8713 50.9626 14.7718 51.0038C14.6722 51.0451 14.5818 51.1055 14.5056 51.1817C14.4295 51.2578 14.369 51.3483 14.3278 51.4478C14.2866 51.5473 14.2654 51.654 14.2654 51.7617C14.2654 51.8694 14.2866 51.9761 14.3278 52.0756C14.369 52.1752 14.4295 52.2656 14.5056 52.3418C14.5818 52.4179 14.6722 52.4784 14.7718 52.5196C14.8713 52.5608 14.978 52.582 15.0857 52.582Z" fill="#3E3E3E"/>
<path d="M22.6638 52.582H35.6521C35.8697 52.582 36.0783 52.4956 36.2321 52.3418C36.386 52.1879 36.4724 51.9793 36.4724 51.7617C36.4724 51.5442 36.386 51.3355 36.2321 51.1817C36.0783 51.0278 35.8697 50.9414 35.6521 50.9414H22.6638C22.4463 50.9414 22.2376 51.0278 22.0838 51.1817C21.9299 51.3355 21.8435 51.5442 21.8435 51.7617C21.8435 51.9793 21.9299 52.1879 22.0838 52.3418C22.2376 52.4956 22.4463 52.582 22.6638 52.582Z" fill="#3E3E3E"/>
<path d="M66.1035 11.3613H51.543C51.1837 11.3603 50.8279 11.4306 50.496 11.5681C50.1641 11.7056 49.8628 11.9075 49.6095 12.1622L42.5253 19.2465C41.8841 19.8911 41.1215 20.4022 40.2815 20.7501C39.4415 21.0981 38.5409 21.2759 37.6317 21.2734H36.8457V18.6758C36.8457 18.4582 36.7593 18.2496 36.6054 18.0957C36.4516 17.9419 36.243 17.8555 36.0254 17.8555H34.7721V14.5284C34.7721 14.3109 34.6857 14.1022 34.5318 13.9484C34.378 13.7945 34.1693 13.7081 33.9518 13.7081H29.8959C29.6783 13.7081 29.4697 13.7945 29.3158 13.9484C29.162 14.1022 29.0756 14.3109 29.0756 14.5284V17.8555H27.8223C27.6047 17.8555 27.3961 17.9419 27.2422 18.0957C27.0884 18.2496 27.002 18.4582 27.002 18.6758V21.2734H22.2168C21.9992 21.2734 21.7906 21.3599 21.6367 21.5137C21.4829 21.6676 21.3965 21.8762 21.3965 22.0938V25.9219C21.3965 26.1394 21.4829 26.3481 21.6367 26.5019C21.7906 26.6558 21.9992 26.7422 22.2168 26.7422H27.002V29.2031H22.1484C21.9309 29.2031 21.7222 29.2896 21.5684 29.4434C21.4146 29.5972 21.3281 29.8059 21.3281 30.0235V34.8086H12.9199V33.9883C12.9192 33.4083 12.6885 32.8523 12.2785 32.4423C11.8684 32.0322 11.3124 31.8015 10.7324 31.8008H3.34961C2.76966 31.8015 2.21366 32.0322 1.80357 32.4423C1.39349 32.8523 1.1628 33.4083 1.16211 33.9883V56.4102C1.1628 56.9901 1.39349 57.5461 1.80357 57.9562C2.21366 58.3663 2.76966 58.597 3.34961 58.5977H10.7324C11.3124 58.597 11.8684 58.3663 12.2785 57.9562C12.6885 57.5461 12.9192 56.9901 12.9199 56.4102V55.5899H50.9277V56.4167C50.9289 56.9947 51.1584 57.5488 51.5661 57.9585C51.9738 58.3682 52.5269 58.6003 53.1048 58.6042L60.4877 58.6394H60.4983C61.0785 58.6394 61.6349 58.4089 62.0451 57.9987C62.4554 57.5884 62.6858 57.032 62.6858 56.4519V34.0361C62.6852 33.4562 62.4545 32.9002 62.0444 32.4901C61.6343 32.08 61.0783 31.8493 60.4983 31.8486H53.1155C52.5355 31.8493 51.9795 32.08 51.5694 32.4901C51.1593 32.9002 50.9287 33.4562 50.928 34.0361V34.8086H42.5195V30.0235C42.5195 29.8059 42.4331 29.5972 42.2793 29.4434C42.1254 29.2896 41.9168 29.2031 41.6992 29.2031H36.8457V26.7422H37.6317C39.2593 26.7466 40.8717 26.4282 42.3754 25.8053C43.8792 25.1825 45.2444 24.2676 46.3922 23.1135L52.6755 16.8301H66.1035C66.8287 16.8301 67.5242 16.542 68.037 16.0292C68.5498 15.5164 68.8379 14.8209 68.8379 14.0957C68.8379 13.3705 68.5498 12.675 68.037 12.1622C67.5242 11.6494 66.8287 11.3613 66.1035 11.3613ZM11.2793 56.4102C11.2793 56.5552 11.2217 56.6943 11.1191 56.7969C11.0166 56.8994 10.8775 56.957 10.7324 56.957H3.34961C3.20457 56.957 3.06547 56.8994 2.96291 56.7969C2.86035 56.6943 2.80273 56.5552 2.80273 56.4102V50.668H11.2793V56.4102ZM11.2793 49.0274H2.80273V41.3711H11.2793V49.0274ZM11.2793 39.7305H2.80273V33.9883C2.80273 33.8433 2.86035 33.7042 2.96291 33.6016C3.06547 33.499 3.20457 33.4414 3.34961 33.4414H10.7324C10.8775 33.4414 11.0166 33.499 11.1191 33.6016C11.2217 33.7042 11.2793 33.8433 11.2793 33.9883V39.7305ZM52.5684 34.0364C52.5684 33.8914 52.626 33.7523 52.7285 33.6497C52.8311 33.5472 52.9702 33.4895 53.1152 33.4895H60.498C60.6431 33.4895 60.7822 33.5472 60.8847 33.6497C60.9873 33.7523 61.0449 33.8914 61.0449 34.0364V39.7305H52.5684V34.0364ZM52.5684 41.3711H61.0449V49.0274H52.5684V41.3711ZM52.5684 50.668H61.0449V56.4512C61.0449 56.5962 60.9873 56.7353 60.8847 56.8379C60.7822 56.9404 60.6431 56.9981 60.498 56.9981H60.4953L53.1125 56.9629C52.968 56.9619 52.8297 56.9039 52.7278 56.8015C52.6259 56.6991 52.5685 56.5606 52.5682 56.416L52.5684 50.668ZM30.7162 15.3487H33.1315V17.8555H30.7162V15.3487ZM28.6426 19.4961H35.2051V21.2734H28.6426V19.4961ZM22.9688 30.8438H25.7031V34.8086H22.9688V30.8438ZM38.1445 30.8438H40.8789V34.8086H38.1445V30.8438ZM50.9277 36.4492V53.9492H12.9199V36.4492H50.9277ZM35.2051 29.2031H28.6426V26.7422H35.2051V29.2031ZM36.5039 30.8438V34.8086H32.8125V30.8438H36.5039ZM31.1719 30.8438V34.8086H27.3438V30.8438H31.1719ZM66.1035 15.1895H52.3359C52.2282 15.1895 52.1215 15.2107 52.022 15.2519C51.9225 15.2931 51.832 15.3535 51.7558 15.4297L45.2323 21.9534C44.2365 22.9546 43.052 23.7484 41.7473 24.2888C40.4427 24.8292 39.0438 25.1054 37.6317 25.1016H23.0371V22.9141H37.6317C38.7564 22.9172 39.8706 22.6971 40.9097 22.2667C41.9488 21.8363 42.8922 21.2041 43.6853 20.4067L50.7696 13.3223C50.8709 13.2204 50.9914 13.1396 51.1242 13.0847C51.2569 13.0297 51.3993 13.0016 51.543 13.002H66.1035C66.3936 13.002 66.6718 13.1172 66.8769 13.3223C67.082 13.5274 67.1973 13.8056 67.1973 14.0957C67.1973 14.3858 67.082 14.664 66.8769 14.8691C66.6718 15.0742 66.3936 15.1895 66.1035 15.1895Z" fill="#3E3E3E"/>
</svg>
