<svg width="60" height="60" viewBox="0 0 60 60" fill="none" xmlns="http://www.w3.org/2000/svg">
<path d="M44.0625 48.9002V22.5002C44.059 18.0257 42.28 13.7355 39.1161 10.5716C35.9522 7.40765 31.662 5.62863 27.1875 5.62516H26.25V4.68766C26.2449 4.02809 26.0081 3.3913 25.5811 2.8886C25.154 2.38591 24.5639 2.04929 23.9139 1.9376C23.2638 1.8259 22.5951 1.94624 22.0248 2.27756C21.4545 2.60889 21.0187 3.13012 20.7938 3.75016H6.5625C5.3193 3.75016 4.12701 4.24402 3.24794 5.1231C2.36886 6.00217 1.875 7.19446 1.875 8.43766V17.8127C1.875 18.4282 1.99625 19.0378 2.23181 19.6065C2.46738 20.1752 2.81266 20.6919 3.24794 21.1272C4.12701 22.0063 5.3193 22.5002 6.5625 22.5002H20.7938C21.0187 23.1202 21.4545 23.6414 22.0248 23.9728C22.5951 24.3041 23.2638 24.4244 23.9139 24.3127C24.5639 24.201 25.154 23.8644 25.5811 23.3617C26.0081 22.859 26.2449 22.2222 26.25 21.5627V20.6252H27.1875C27.6843 20.6266 28.1604 20.8247 28.5117 21.176C28.863 21.5273 29.061 22.0033 29.0625 22.5002V48.8158C1.875 50.7095 1.875 52.4814 1.875 53.4377C1.875 54.2533 1.875 55.7814 11.9906 57.0189C18.5917 57.7724 25.231 58.1417 31.875 58.1251C34.5656 58.1251 58.125 57.9939 58.125 53.4377C58.125 52.6408 58.125 51.3283 44.0625 48.9002ZM20.625 20.6252H6.5625C5.81726 20.6229 5.10319 20.3259 4.57622 19.7989C4.04926 19.272 3.75223 18.5579 3.75 17.8127V8.43766C3.75223 7.69242 4.04926 6.97834 4.57622 6.45138C5.10319 5.92441 5.81726 5.62738 6.5625 5.62516H20.625V20.6252ZM24.375 21.5627C24.375 21.8113 24.2762 22.0498 24.1004 22.2256C23.9246 22.4014 23.6861 22.5002 23.4375 22.5002C23.1889 22.5002 22.9504 22.4014 22.7746 22.2256C22.5988 22.0498 22.5 21.8113 22.5 21.5627V4.68766C22.5 4.43902 22.5988 4.20056 22.7746 4.02475C22.9504 3.84893 23.1889 3.75016 23.4375 3.75016C23.6861 3.75016 23.9246 3.84893 24.1004 4.02475C24.2762 4.20056 24.375 4.43902 24.375 4.68766V21.5627ZM31.875 56.2501C18.0562 56.2501 7.1625 54.7689 4.33125 53.5877C7.575 52.6033 19.3031 51.3564 30.0656 50.6252C30.3027 50.6085 30.5246 50.5024 30.6865 50.3284C30.8484 50.1544 30.9381 49.9253 30.9375 49.6877V22.5002C30.9375 21.5056 30.5424 20.5518 29.8391 19.8485C29.1359 19.1452 28.1821 18.7502 27.1875 18.7502H26.25V7.50016H27.1875C31.1641 7.50537 34.9764 9.08739 37.7883 11.8993C40.6003 14.7112 42.1823 18.5235 42.1875 22.5002V49.6877C42.188 49.909 42.2661 50.1231 42.4083 50.2928C42.5505 50.4624 42.7478 50.5767 42.9656 50.6158C48.15 51.4877 54.1031 52.7908 55.9313 53.597C53.9719 54.7689 45.1688 56.2501 31.875 56.2501Z" fill="#3E3E3E"/>
<path d="M10.3129 34.6211C10.3129 34.3725 10.2141 34.134 10.0383 33.9582C9.8625 33.7824 9.62404 33.6836 9.3754 33.6836C9.12676 33.6836 8.8883 33.7824 8.71249 33.9582C8.53667 34.134 8.4379 34.3725 8.4379 34.6211C8.49098 35.3822 8.38015 36.1458 8.11289 36.8604C7.84564 37.575 7.42818 38.224 6.8887 38.7635C6.34921 39.3029 5.70026 39.7204 4.98566 39.9877C4.27106 40.2549 3.50743 40.3657 2.74634 40.3127C2.4977 40.3127 2.25924 40.4114 2.08343 40.5872C1.90761 40.7631 1.80884 41.0015 1.80884 41.2502C1.80884 41.4988 1.90761 41.7373 2.08343 41.9131C2.25924 42.0889 2.4977 42.1877 2.74634 42.1877C3.50743 42.1346 4.27106 42.2454 4.98566 42.5127C5.70026 42.7799 6.34921 43.1974 6.8887 43.7369C7.42818 44.2763 7.84564 44.9253 8.11289 45.6399C8.38015 46.3545 8.49098 47.1181 8.4379 47.8792C8.4379 48.1279 8.53667 48.3663 8.71249 48.5421C8.8883 48.718 9.12676 48.8167 9.3754 48.8167C9.62404 48.8167 9.8625 48.718 10.0383 48.5421C10.2141 48.3663 10.3129 48.1279 10.3129 47.8792C10.2598 47.1181 10.3707 46.3545 10.6379 45.6399C10.9052 44.9253 11.3226 44.2763 11.8621 43.7369C12.4016 43.1974 13.0505 42.7799 13.7651 42.5127C14.4797 42.2454 15.2434 42.1346 16.0045 42.1877C16.2531 42.1877 16.4916 42.0889 16.6674 41.9131C16.8432 41.7373 16.942 41.4988 16.942 41.2502C16.942 41.0015 16.8432 40.7631 16.6674 40.5872C16.4916 40.4114 16.2531 40.3127 16.0045 40.3127C15.2434 40.3657 14.4797 40.2549 13.7651 39.9877C13.0505 39.7204 12.4016 39.3029 11.8621 38.7635C11.3226 38.224 10.9052 37.575 10.6379 36.8604C10.3707 36.1458 10.2598 35.3822 10.3129 34.6211ZM9.3754 43.9398C8.75894 42.8012 7.82436 41.8666 6.68571 41.2502C7.82436 40.6337 8.75894 39.6991 9.3754 38.5605C9.99186 39.6991 10.9264 40.6337 12.0651 41.2502C10.9264 41.8666 9.99186 42.8012 9.3754 43.9398Z" fill="#3E3E3E"/>
<path d="M18.7504 38.5042C18.7504 38.7529 18.8492 38.9913 19.025 39.1671C19.2008 39.343 19.4393 39.4417 19.6879 39.4417C19.9365 39.4417 20.175 39.343 20.3508 39.1671C20.5266 38.9913 20.6254 38.7529 20.6254 38.5042C20.5723 37.7431 20.6832 36.9795 20.9504 36.2649C21.2177 35.5503 21.6351 34.9013 22.1746 34.3619C22.7141 33.8224 23.363 33.4049 24.0776 33.1377C24.7922 32.8704 25.5559 32.7596 26.317 32.8127C26.5656 32.8127 26.8041 32.7139 26.9799 32.5381C27.1557 32.3623 27.2545 32.1238 27.2545 31.8752C27.2545 31.6265 27.1557 31.3881 26.9799 31.2122C26.8041 31.0364 26.5656 30.9377 26.317 30.9377C25.5559 30.9907 24.7922 30.8799 24.0776 30.6126C23.363 30.3454 22.7141 29.9279 22.1746 29.3885C21.6351 28.849 21.2177 28.2 20.9504 27.4854C20.6832 26.7708 20.5723 26.0072 20.6254 25.2461C20.6254 24.9975 20.5266 24.759 20.3508 24.5832C20.175 24.4074 19.9365 24.3086 19.6879 24.3086C19.4393 24.3086 19.2008 24.4074 19.025 24.5832C18.8492 24.759 18.7504 24.9975 18.7504 25.2461C18.8035 26.0072 18.6926 26.7708 18.4254 27.4854C18.1581 28.2 17.7407 28.849 17.2012 29.3885C16.6617 29.9279 16.0128 30.3454 15.2982 30.6126C14.5836 30.8799 13.8199 30.9907 13.0588 30.9377C12.8102 30.9377 12.5717 31.0364 12.3959 31.2122C12.2201 31.3881 12.1213 31.6265 12.1213 31.8752C12.1213 32.1238 12.2201 32.3623 12.3959 32.5381C12.5717 32.7139 12.8102 32.8127 13.0588 32.8127C13.8199 32.7596 14.5836 32.8704 15.2982 33.1377C16.0128 33.4049 16.6617 33.8224 17.2012 34.3619C17.7407 34.9013 18.1581 35.5503 18.4254 36.2649C18.6926 36.9795 18.8035 37.7431 18.7504 38.5042ZM19.6879 29.1855C20.3044 30.3241 21.2389 31.2587 22.3776 31.8752C21.2389 32.4916 20.3044 33.4262 19.6879 34.5648C19.0714 33.4262 18.1369 32.4916 16.9982 31.8752C18.1369 31.2587 19.0714 30.3241 19.6879 29.1855Z" fill="#3E3E3E"/>
<path d="M54.3753 17.585C54.3753 17.3363 54.2765 17.0979 54.1007 16.922C53.9249 16.7462 53.6864 16.6475 53.4378 16.6475C53.1891 16.6475 52.9507 16.7462 52.7749 16.922C52.599 17.0979 52.5003 17.3363 52.5003 17.585C52.5334 17.9926 52.4775 18.4026 52.3365 18.7865C52.1954 19.1705 51.9725 19.5191 51.6833 19.8083C51.3941 20.0975 51.0455 20.3204 50.6615 20.4615C50.2776 20.6025 49.8676 20.6584 49.46 20.6253C49.2113 20.6253 48.9729 20.724 48.797 20.8999C48.6212 21.0757 48.5225 21.3141 48.5225 21.5628C48.5225 21.8114 48.6212 22.0499 48.797 22.2257C48.9729 22.4015 49.2113 22.5003 49.46 22.5003C49.8676 22.4671 50.2776 22.523 50.6615 22.6641C51.0455 22.8051 51.3941 23.028 51.6833 23.3172C51.9725 23.6064 52.1954 23.9551 52.3365 24.339C52.4775 24.7229 52.5334 25.1329 52.5003 25.5406C52.5003 25.7892 52.599 26.0277 52.7749 26.2035C52.9507 26.3793 53.1891 26.4781 53.4378 26.4781C53.6864 26.4781 53.9249 26.3793 54.1007 26.2035C54.2765 26.0277 54.3753 25.7892 54.3753 25.5406C54.3421 25.1329 54.398 24.7229 54.5391 24.339C54.6801 23.9551 54.903 23.6064 55.1922 23.3172C55.4814 23.028 55.8301 22.8051 56.214 22.6641C56.5979 22.523 57.0079 22.4671 57.4156 22.5003C57.6642 22.5003 57.9027 22.4015 58.0785 22.2257C58.2543 22.0499 58.3531 21.8114 58.3531 21.5628C58.3531 21.3141 58.2543 21.0757 58.0785 20.8999C57.9027 20.724 57.6642 20.6253 57.4156 20.6253C57.0079 20.6584 56.5979 20.6025 56.214 20.4615C55.8301 20.3204 55.4814 20.0975 55.1922 19.8083C54.903 19.5191 54.6801 19.1705 54.5391 18.7865C54.398 18.4026 54.3421 17.9926 54.3753 17.585ZM53.4378 22.5003C53.1736 22.1429 52.8576 21.8269 52.5003 21.5628C52.8576 21.2986 53.1736 20.9826 53.4378 20.6253C53.7019 20.9826 54.0179 21.2986 54.3753 21.5628C54.0179 21.8269 53.7019 22.1429 53.4378 22.5003Z" fill="#3E3E3E"/>
<path d="M58.3531 44.0628C57.9454 44.0959 57.5354 44.04 57.1515 43.899C56.7676 43.7579 56.4189 43.535 56.1297 43.2458C55.8405 42.9566 55.6176 42.608 55.4766 42.224C55.3355 41.8401 55.2796 41.4301 55.3128 41.0225C55.3128 40.7738 55.214 40.5354 55.0382 40.3595C54.8624 40.1837 54.6239 40.085 54.3753 40.085C54.1266 40.085 53.8882 40.1837 53.7124 40.3595C53.5365 40.5354 53.4378 40.7738 53.4378 41.0225C53.4709 41.4301 53.415 41.8401 53.274 42.224C53.1329 42.608 52.91 42.9566 52.6208 43.2458C52.3316 43.535 51.983 43.7579 51.599 43.899C51.2151 44.04 50.8051 44.0959 50.3975 44.0628C50.1488 44.0628 49.9104 44.1615 49.7345 44.3374C49.5587 44.5132 49.46 44.7516 49.46 45.0003C49.46 45.2489 49.5587 45.4874 49.7345 45.6632C49.9104 45.839 50.1488 45.9378 50.3975 45.9378C50.8051 45.9046 51.2151 45.9605 51.599 46.1016C51.983 46.2426 52.3316 46.4655 52.6208 46.7547C52.91 47.0439 53.1329 47.3926 53.274 47.7765C53.415 48.1604 53.4709 48.5704 53.4378 48.9781C53.4378 49.2267 53.5365 49.4652 53.7124 49.641C53.8882 49.8168 54.1266 49.9156 54.3753 49.9156C54.6239 49.9156 54.8624 49.8168 55.0382 49.641C55.214 49.4652 55.3128 49.2267 55.3128 48.9781C55.2796 48.5704 55.3355 48.1604 55.4766 47.7765C55.6176 47.3926 55.8405 47.0439 56.1297 46.7547C56.4189 46.4655 56.7676 46.2426 57.1515 46.1016C57.5354 45.9605 57.9454 45.9046 58.3531 45.9378C58.6017 45.9378 58.8402 45.839 59.016 45.6632C59.1918 45.4874 59.2906 45.2489 59.2906 45.0003C59.2906 44.7516 59.1918 44.5132 59.016 44.3374C58.8402 44.1615 58.6017 44.0628 58.3531 44.0628ZM54.3753 45.9378C54.1111 45.5804 53.7951 45.2644 53.4378 45.0003C53.7951 44.7361 54.1111 44.4201 54.3753 44.0628C54.6394 44.4201 54.9554 44.7361 55.3128 45.0003C54.9554 45.2644 54.6394 45.5804 54.3753 45.9378Z" fill="#3E3E3E"/>
<path d="M53.6656 34.6878C53.2579 34.7209 52.8479 34.665 52.464 34.524C52.0801 34.3829 51.7314 34.16 51.4422 33.8708C51.153 33.5816 50.9301 33.233 50.7891 32.849C50.648 32.4651 50.5921 32.0551 50.6253 31.6475C50.6253 31.3988 50.5265 31.1604 50.3507 30.9845C50.1749 30.8087 49.9364 30.71 49.6878 30.71C49.4391 30.71 49.2007 30.8087 49.0249 30.9845C48.849 31.1604 48.7503 31.3988 48.7503 31.6475C48.7834 32.0551 48.7275 32.4651 48.5865 32.849C48.4454 33.233 48.2225 33.5816 47.9333 33.8708C47.6441 34.16 47.2955 34.3829 46.9115 34.524C46.5276 34.665 46.1176 34.7209 45.71 34.6878C45.4613 34.6878 45.2229 34.7865 45.047 34.9624C44.8712 35.1382 44.7725 35.3766 44.7725 35.6253C44.7725 35.8739 44.8712 36.1124 45.047 36.2882C45.2229 36.464 45.4613 36.5628 45.71 36.5628C46.1176 36.5296 46.5276 36.5855 46.9115 36.7266C47.2955 36.8676 47.6441 37.0905 47.9333 37.3797C48.2225 37.6689 48.4454 38.0176 48.5865 38.4015C48.7275 38.7854 48.7834 39.1954 48.7503 39.6031C48.7503 39.8517 48.849 40.0902 49.0249 40.266C49.2007 40.4418 49.4391 40.5406 49.6878 40.5406C49.9364 40.5406 50.1749 40.4418 50.3507 40.266C50.5265 40.0902 50.6253 39.8517 50.6253 39.6031C50.5921 39.1954 50.648 38.7854 50.7891 38.4015C50.9301 38.0176 51.153 37.6689 51.4422 37.3797C51.7314 37.0905 52.0801 36.8676 52.464 36.7266C52.8479 36.5855 53.2579 36.5296 53.6656 36.5628C53.9142 36.5628 54.1527 36.464 54.3285 36.2882C54.5043 36.1124 54.6031 35.8739 54.6031 35.6253C54.6031 35.3766 54.5043 35.1382 54.3285 34.9624C54.1527 34.7865 53.9142 34.6878 53.6656 34.6878ZM49.6878 36.5628C49.4236 36.2054 49.1076 35.8894 48.7503 35.6253C49.1076 35.3611 49.4236 35.0451 49.6878 34.6878C49.9519 35.0451 50.2679 35.3611 50.6253 35.6253C50.2679 35.8894 49.9519 36.2054 49.6878 36.5628Z" fill="#3E3E3E"/>
<path d="M42.1213 10.3127C42.8824 10.2596 43.6461 10.3704 44.3607 10.6377C45.0753 10.9049 45.7242 11.3224 46.2637 11.8619C46.8032 12.4013 47.2206 13.0503 47.4879 13.7649C47.7551 14.4795 47.866 15.2431 47.8129 16.0042C47.8129 16.2529 47.9117 16.4913 48.0875 16.6671C48.2633 16.8429 48.5018 16.9417 48.7504 16.9417C48.999 16.9417 49.2375 16.8429 49.4133 16.6671C49.5891 16.4913 49.6879 16.2529 49.6879 16.0042C49.6348 15.2431 49.7457 14.4795 50.0129 13.7649C50.2802 13.0503 50.6976 12.4013 51.2371 11.8619C51.7766 11.3224 52.4255 10.9049 53.1401 10.6377C53.8547 10.3704 54.6184 10.2596 55.3795 10.3127C55.6281 10.3127 55.8666 10.2139 56.0424 10.0381C56.2182 9.86225 56.317 9.6238 56.317 9.37516C56.317 9.12651 56.2182 8.88806 56.0424 8.71224C55.8666 8.53643 55.6281 8.43766 55.3795 8.43766C54.6184 8.49073 53.8547 8.3799 53.1401 8.11265C52.4255 7.84539 51.7766 7.42793 51.2371 6.88845C50.6976 6.34897 50.2802 5.70002 50.0129 4.98542C49.7457 4.27081 49.6348 3.50719 49.6879 2.74609C49.6879 2.49745 49.5891 2.259 49.4133 2.08318C49.2375 1.90737 48.999 1.80859 48.7504 1.80859C48.5018 1.80859 48.2633 1.90737 48.0875 2.08318C47.9117 2.259 47.8129 2.49745 47.8129 2.74609C47.866 3.50719 47.7551 4.27081 47.4879 4.98542C47.2206 5.70002 46.8032 6.34897 46.2637 6.88845C45.7242 7.42793 45.0753 7.84539 44.3607 8.11265C43.6461 8.3799 42.8824 8.49073 42.1213 8.43766C41.8727 8.43766 41.6342 8.53643 41.4584 8.71224C41.2826 8.88806 41.1838 9.12651 41.1838 9.37516C41.1838 9.6238 41.2826 9.86225 41.4584 10.0381C41.6342 10.2139 41.8727 10.3127 42.1213 10.3127ZM48.7504 6.68547C49.3669 7.82411 50.3014 8.75869 51.4401 9.37516C50.3014 9.99162 49.3669 10.9262 48.7504 12.0648C48.1339 10.9262 47.1994 9.99162 46.0607 9.37516C47.1994 8.75869 48.1339 7.82411 48.7504 6.68547Z" fill="#3E3E3E"/>
</svg>
