<svg width="60" height="60" viewBox="0 0 60 60" fill="none" xmlns="http://www.w3.org/2000/svg">
<g clip-path="url(#clip0)">
<path d="M47.3618 51.1922C44.6829 51.4963 42.2012 52.4523 40.1854 53.957L37.3587 56.0665C32.846 59.4348 25.3744 58.8074 20.7028 54.6671C18.1293 52.3858 14.6336 51.1294 10.8598 51.1294C6.67923 51.1294 2.80841 52.6894 0.239894 55.4092C-0.0933869 55.7622 -0.0774494 56.3185 0.275519 56.6517C0.628371 56.9848 1.18454 56.9691 1.51806 56.6161C3.75599 54.2464 7.16087 52.8873 10.8599 52.8873C14.2036 52.8873 17.2853 53.9865 19.537 55.9826C21.9764 58.1446 25.3372 59.579 28.7578 59.9182C29.2958 59.9715 29.8287 59.9979 30.3557 59.9979C33.386 59.9979 36.2016 59.124 38.4102 57.4753L41.2369 55.366C43.0036 54.0472 45.1902 53.2081 47.5602 52.939C48.0425 52.8843 48.3891 52.4488 48.3343 51.9666C48.2796 51.484 47.8438 51.1383 47.3618 51.1922Z" fill="#3E3E3E"/>
<path d="M51.6968 51.279C51.2171 51.2048 50.7681 51.5336 50.694 52.0135C50.6199 52.4932 50.9488 52.9421 51.4285 53.0163C54.2305 53.4491 56.7374 54.6907 58.4874 56.5125C58.8241 56.8628 59.3805 56.8733 59.7301 56.5373C60.08 56.2011 60.0913 55.6447 59.7549 55.2947C57.7394 53.1964 54.8776 51.7704 51.6968 51.279Z" fill="#3E3E3E"/>
<path d="M40.1909 47.6274L39.4727 48.1546C39.3376 47.803 39.1822 47.5053 39.0409 47.2344C38.6909 46.5994 38.3988 45.9107 38.4396 44.8018L41.2366 42.7146C46.3348 38.9092 54.2344 39.4345 58.4872 43.8612C58.8236 44.2112 59.38 44.2224 59.7299 43.8861C60.0798 43.5499 60.0911 42.9935 59.7547 42.6434C54.9191 37.61 45.9572 36.9977 40.1852 41.3058L39.415 41.8808C39.6533 41.3087 39.8436 40.5982 39.8436 39.5545C39.8436 37.9914 39.4171 37.174 39.0408 36.4528C38.7036 35.8066 38.4374 35.2964 38.4374 34.1643C38.4374 33.9089 38.4511 33.6768 38.4795 33.4604C40.237 33.4376 41.66 32.0016 41.66 30.2388V27.4263C41.66 25.8909 40.5803 24.6036 39.1405 24.2818C39.1405 24.2818 39.1397 19.6619 39.1379 19.5592C39.1294 19.0739 38.73 18.6855 38.2437 18.6959C37.7583 18.7045 37.3719 19.1048 37.3804 19.5902C37.382 19.6825 37.3828 24.2036 37.3828 24.2036H22.7344V21.04C22.7344 19.9093 21.8143 18.9892 20.6836 18.9892L9.25782 18.9889V10.9028C9.25782 10.4173 8.86443 10.0239 8.37892 10.0239C7.89341 10.0239 7.50001 10.4173 7.50001 10.9028V20.1021C7.50001 20.9098 6.84294 21.5669 6.03517 21.5669H3.22267C2.41489 21.5669 1.75782 20.9098 1.75782 20.1021V3.22705C1.75782 2.41928 2.41489 1.76221 3.22267 1.76221H6.03517C6.84294 1.76221 7.50001 2.41928 7.50001 3.22705V6.80127C7.50001 7.28678 7.89341 7.68018 8.37892 7.68018C8.86443 7.68018 9.25782 7.28678 9.25782 6.80127V4.34033H11.0156V7.56299C11.0156 8.37076 11.6727 9.02783 12.4805 9.02783H20.4492C21.257 9.02783 21.9141 8.37076 21.9141 7.56299V4.34092C28.8442 4.36717 34.9684 9.03369 36.8195 15.708C36.9478 16.1797 37.4462 16.45 37.9014 16.3201C38.3691 16.1903 38.6431 15.706 38.5135 15.2382C36.4468 7.7867 29.5968 2.58252 21.8555 2.58252H9.19302C8.89361 1.11334 7.59142 0.00439453 6.03517 0.00439453H3.22267C1.44575 0.00439453 1.15745e-05 1.45002 1.15745e-05 3.22705V20.1021C1.15745e-05 21.879 1.44575 23.3247 3.22267 23.3247H6.03517C7.59142 23.3247 8.89349 22.2158 9.1929 20.7467L20.6836 20.7471C20.8452 20.7471 20.9766 20.8784 20.9766 21.04V24.258C19.4786 24.5344 18.3399 25.8495 18.3399 27.4263V30.2388C18.3399 31.5807 19.1646 32.7332 20.3336 33.2173C20.2937 33.5159 20.2734 33.83 20.2734 34.1643C20.2734 35.7274 20.7 36.5448 21.0763 37.266C21.4134 37.9122 21.6797 38.4224 21.6797 39.5545C21.6769 40.8774 21.3295 41.3244 20.9006 42.1865C20.8341 42.1299 20.7677 42.0732 20.7029 42.0158C15.0731 37.0248 5.31962 37.3787 0.239894 42.758C-0.0933869 43.111 -0.0774494 43.6673 0.275519 44.0006C0.628371 44.3337 1.18454 44.3177 1.51806 43.965C5.9856 39.2334 14.574 38.9313 19.537 43.3313C19.7918 43.5571 20.0595 43.7769 20.3351 43.9882C20.2965 44.2743 20.2736 44.5898 20.2736 44.9455C20.2736 46.4862 20.6902 47.3889 21.0575 48.1852C21.1583 48.4037 21.2565 48.6165 21.3437 48.8387C21.0699 48.6427 20.8531 48.4747 20.7029 48.3416C15.0728 43.3501 5.31927 43.7046 0.239777 49.0851C-0.0933869 49.4381 -0.0773322 49.9944 0.275637 50.3276C0.628488 50.6607 1.18466 50.6448 1.51818 50.2918C5.98536 45.5595 14.5739 45.2569 19.5369 49.657C19.8612 49.9444 20.3722 50.3196 21.0558 50.7721C22.093 51.5109 23.6006 50.4814 23.2974 49.2462C23.1438 48.5109 22.8834 47.9465 22.6536 47.4486C22.3198 46.7251 22.0314 46.1003 22.0314 44.9456C22.0314 43.8134 22.2976 43.3028 22.6348 42.6567C23.0111 41.9355 23.4376 41.1179 23.4376 39.5546C23.4376 37.9916 23.0111 37.1742 22.6348 36.4529C22.2976 35.8067 22.0314 35.2965 22.0314 34.1644C22.0314 33.9094 22.0453 33.6778 22.0736 33.4616H25.4297C25.9152 33.4616 26.3086 33.0682 26.3086 32.5826C26.3086 32.0971 25.9152 31.7037 25.4297 31.7037C25.4297 31.7037 21.4138 31.6843 21.3475 31.6862C20.6417 31.5815 20.0977 30.9734 20.0977 30.2389V27.4264C20.0977 26.6186 20.7547 25.9615 21.5625 25.9615H38.4375C39.2453 25.9615 39.9024 26.6186 39.9024 27.4264V30.2389C39.9024 31.0467 39.2453 31.7037 38.4375 31.7037H29.5313C29.0458 31.7037 28.6524 32.0971 28.6524 32.5826C28.6524 33.0682 29.0458 33.4616 29.5313 33.4616H36.7119C36.6907 33.6863 36.6797 33.9199 36.6797 34.1644C36.6797 35.7275 37.1063 36.5449 37.4826 37.2662C37.8197 37.9123 38.0859 38.4226 38.0859 39.5546C38.0859 40.6869 37.8197 41.1974 37.4826 41.8436C37.0776 42.5065 36.6298 43.8113 36.6797 44.9456C36.6797 46.5089 37.1063 47.3264 37.4826 48.0476C37.659 48.386 37.8115 48.6781 37.9209 49.0462C38.6837 50.8413 40.1634 49.9637 41.2368 49.0405C46.3352 45.2351 54.2351 45.7608 58.4872 50.1882C58.8238 50.5386 59.3802 50.5491 59.7299 50.2133C60.0799 49.8771 60.0912 49.3207 59.755 48.9706C54.9198 43.9362 45.958 43.323 40.1909 47.6274ZM12.7734 7.27002V4.34033H20.1563V7.27002H12.7734Z" fill="#3E3E3E"/>
</g>
<defs>
<clipPath id="clip0">
<rect width="60" height="60" fill="white"/>
</clipPath>
</defs>
</svg>
