<svg width="62" height="62" viewBox="0 0 62 62" fill="none" xmlns="http://www.w3.org/2000/svg">
<path d="M46.8512 24.1512H45.6419V5.30161H46.2953C46.7969 5.30161 47.2035 4.89509 47.2035 4.3934C47.2037 1.9708 45.2327 0 42.8101 0H19.1903C16.7677 0 14.7968 1.9708 14.7968 4.3934C14.7968 4.89509 15.2034 5.30161 15.705 5.30161H16.3584V7.50927H15.0427C13.7542 7.50927 12.706 8.55757 12.706 9.84613V10.4786V12.1416V17.9377C12.706 18.4394 13.1126 18.8459 13.6142 18.8459C14.1158 18.8459 14.5224 18.4394 14.5224 17.9377V14.4179C14.69 14.4562 14.8638 14.4783 15.0427 14.4783H16.3584V24.1511H15.1492C12.2283 24.1511 9.85193 26.5274 9.85193 29.4483V31.656C9.85193 32.1577 10.2586 32.5642 10.7601 32.5642H13.111C13.2893 36.1777 14.531 39.5909 16.7308 42.4853C18.5069 44.8221 20.8572 46.6984 23.5055 47.9254L23.9181 49.8464C24.0555 50.4864 24.0588 51.1361 23.928 51.7774L22.0641 60.9102C22.0096 61.1774 22.078 61.455 22.2505 61.6661C22.423 61.8775 22.6813 62 22.954 62H39.0462C39.3189 62 39.5772 61.8775 39.7497 61.6661C39.9222 61.455 39.9906 61.1774 39.9361 60.9102L38.0723 51.7778C37.9414 51.1363 37.9448 50.4866 38.0823 49.8467L38.4934 47.9323C40.2752 47.111 41.926 45.9927 43.3793 44.6028C43.7418 44.2563 43.7547 43.6813 43.408 43.3187C43.0612 42.9562 42.4862 42.9434 42.1239 43.2902C40.7245 44.6285 39.1211 45.6867 37.3876 46.4363C37.3591 46.447 37.3311 46.4588 37.304 46.4721C35.3334 47.3108 33.1967 47.7521 31.0004 47.7521C30.5982 47.7521 30.1922 47.7371 29.7938 47.7075C29.2943 47.6721 28.858 48.0459 28.8208 48.546C28.7836 49.0462 29.159 49.4818 29.6592 49.519C30.1022 49.5518 30.5534 49.5685 31.0004 49.5685C32.8796 49.5685 34.7196 49.2785 36.4665 48.7201L36.3066 49.4652C36.1162 50.3519 36.1116 51.2521 36.2929 52.1408L37.9339 60.1836H24.0663L25.7076 52.1408C25.8889 51.2522 25.8844 50.352 25.6939 49.4652L25.5334 48.718C25.671 48.762 25.8089 48.8051 25.9477 48.8458C26.0331 48.8709 26.1192 48.8829 26.2038 48.8829C26.5965 48.8829 26.9586 48.6262 27.0749 48.2302C27.216 47.7488 26.9404 47.2441 26.4591 47.1029C23.1911 46.1439 20.2498 44.1136 18.1769 41.3862C16.2194 38.8108 15.1087 35.7771 14.9321 32.5643H18.7558C19.2574 32.5643 19.664 32.1578 19.664 31.6561C19.664 31.1544 19.2574 30.7479 18.7558 30.7479H11.6682V29.4484C11.6682 27.529 13.2297 25.9676 15.1491 25.9676H17.2665H44.7336H46.851C48.7704 25.9676 50.3319 27.5291 50.3319 29.4484V30.7479H22.3737C21.8722 30.7479 21.4655 31.1544 21.4655 31.6561C21.4655 32.1578 21.8722 32.5643 22.3737 32.5643H47.068C46.9066 35.4638 45.9763 38.2442 44.3475 40.6549C44.0667 41.0705 44.1761 41.6351 44.5917 41.9159C44.7475 42.0211 44.9244 42.0716 45.0993 42.0716C45.3909 42.0716 45.6773 41.9315 45.8527 41.6716C47.6849 38.9596 48.7238 35.8279 48.887 32.5643H51.2402C51.7418 32.5643 52.1484 32.1578 52.1484 31.6561V29.4484C52.1485 26.5275 49.7722 24.1512 46.8512 24.1512ZM16.3585 12.662H15.0429C14.7559 12.662 14.5225 12.4286 14.5225 12.1416V10.4786V9.84613C14.5225 9.55914 14.756 9.32567 15.0429 9.32567H16.3585V12.662ZM43.8254 24.1512H18.1748V13.5703V8.41759V5.30161H43.8255V24.1512H43.8254ZM44.7336 3.4852H17.2666H16.7784C17.1465 2.511 18.0888 1.81641 19.1903 1.81641H42.8101C43.9116 1.81641 44.854 2.511 45.222 3.4852H44.7336Z" fill="#3E3E3E"/>
</svg>
