<svg width="60" height="60" viewBox="0 0 60 60" fill="none" xmlns="http://www.w3.org/2000/svg">
<g clip-path="url(#clip0)">
<path d="M36.7268 15.4722C36.7268 11.7634 33.7091 8.74609 29.9999 8.74609C26.2907 8.74609 23.2731 11.7634 23.2731 15.4722C23.2731 19.1811 26.2907 22.1984 29.9999 22.1984C33.7091 22.1984 36.7268 19.1811 36.7268 15.4722ZM25.0319 15.4722C25.0319 12.7332 27.2606 10.5048 30 10.5048C32.7395 10.5048 34.9681 12.7332 34.9681 15.4722C34.9681 18.2113 32.7395 20.4396 30 20.4396C27.2606 20.4396 25.0319 18.2113 25.0319 15.4722Z" fill="#3E3E3E"/>
<path d="M32.326 14.3607C33.1245 13.5623 31.8821 12.3174 31.0826 13.117L29.3195 14.8799C28.5324 15.6668 29.7578 16.9288 30.563 16.1235L32.326 14.3607Z" fill="#3E3E3E"/>
<path d="M48.8564 5.8945C48.8564 4.13305 47.6788 2.5578 45.9929 2.06395C43.3622 1.29315 37.7865 0 30 0C28.1261 0 26.2467 0.0798471 24.414 0.237196C23.289 0.33381 23.438 2.08646 24.5644 1.98949C26.3473 1.83637 28.1761 1.75875 30 1.75875C37.5669 1.75875 42.9581 3.00734 45.4983 3.75176C46.44 4.02765 47.0976 4.90878 47.0976 5.89462V35.2479H12.9024V5.91994C12.9024 4.92789 13.5675 4.04441 14.5197 3.77169C15.8456 3.39192 17.2822 3.05565 18.7894 2.77214C19.8991 2.56343 19.5756 0.834232 18.4643 1.04376C16.9037 1.33723 15.4136 1.68629 14.0355 2.08107C12.3329 2.56871 11.1438 4.14736 11.1438 5.92006V44.3459C11.1438 46.1073 12.3213 47.6826 14.0073 48.1764C14.6717 48.3712 15.5247 48.5991 16.5531 48.8313V50.9747C16.5531 52.2453 17.372 53.3448 18.5909 53.7105C19.4641 53.9723 20.7963 54.3173 22.5377 54.6101V59.1525C22.5377 60.2816 24.2964 60.2833 24.2964 59.1525V54.8659C24.8224 54.9311 25.3759 54.9896 25.9558 55.0392V59.1525C25.9558 60.2816 27.7146 60.2833 27.7146 59.1525V55.1555C28.4431 55.1898 29.2046 55.2095 30.0001 55.2095C30.7681 55.2095 31.5304 55.1908 32.2857 55.1538V59.1525C32.2857 60.2816 34.0444 60.2833 34.0444 59.1525V55.0329C34.6023 54.9837 35.1556 54.924 35.7039 54.8541V59.1525C35.7039 60.2816 37.4626 60.2833 37.4626 59.1525V54.5916C37.8907 54.5182 38.3156 54.4392 38.7362 54.3529C39.8423 54.1259 39.4903 52.4029 38.3826 52.6301C32.1459 53.91 25.2199 53.8622 19.0961 52.0257C18.627 51.885 18.3119 51.4626 18.3119 50.9746V49.1946C21.2578 49.7507 25.2097 50.2404 30.0001 50.2404C34.7162 50.2404 38.6991 49.7342 41.6884 49.1647V50.958C41.6884 52.0872 43.4472 52.0888 43.4472 50.958V48.7994C44.454 48.5724 45.2993 48.3499 45.9648 48.1594C47.6673 47.6718 48.8565 46.0931 48.8565 44.3204V5.8945H48.8564ZM45.4804 46.4686C42.8558 47.2204 37.3545 48.4815 30 48.4815C22.4332 48.4815 17.0419 47.2329 14.5017 46.4885C13.5601 46.2126 12.9024 45.3315 12.9024 44.3456V37.0064H47.0976V44.3204C47.0976 45.3125 46.4326 46.1958 45.4804 46.4686Z" fill="#3E3E3E"/>
<path d="M23.8882 41.2412C22.7565 41.2412 22.7546 43 23.8882 43C25.0198 43 25.0216 41.2412 23.8882 41.2412Z" fill="#3E3E3E"/>
<path d="M30 41.2412C28.8683 41.2412 28.8664 43 30 43C31.1317 43 31.1336 41.2412 30 41.2412Z" fill="#3E3E3E"/>
<path d="M36.1119 41.2412C34.9802 41.2412 34.9784 43 36.1119 43C37.2436 43 37.2455 41.2412 36.1119 41.2412Z" fill="#3E3E3E"/>
</g>
<defs>
<clipPath id="clip0">
<rect width="60" height="60" fill="white"/>
</clipPath>
</defs>
</svg>
