<svg width="60" height="60" viewBox="0 0 60 60" fill="none" xmlns="http://www.w3.org/2000/svg">
<g clip-path="url(#clip0)">
<path d="M1.00022 60.1161H49.0001C49.5526 60.1161 50.0003 59.6684 50.0003 59.1163V50.1162H57C57.5525 50.1162 58.0002 49.6685 58.0002 49.1165V39.1161C58.0002 38.5641 57.5525 38.1164 57 38.1164H50.0003V29.1162C50.0003 28.5637 49.5526 28.116 49.0001 28.116H47.1649C47.3059 27.4623 47.1567 26.7793 46.7561 26.2438L42.2375 20.2205L44.324 18.6554C45.251 17.9614 45.7687 16.849 45.7033 15.6927L45.603 13.8919C45.5756 13.4034 45.7944 12.9338 46.1858 12.6403L48.2718 11.0757L49.1498 12.2458C49.3086 12.4577 49.5453 12.5982 49.8081 12.6358C49.8548 12.6422 49.9019 12.6458 49.9495 12.6454C50.166 12.6458 50.3766 12.5753 50.5496 12.4453L58.8004 6.2559C60.1252 5.26209 60.3939 3.38205 59.4001 2.05682L58.8443 1.31524C57.8492 -0.00816239 55.97 -0.275955 54.6444 0.71648L46.3945 6.90547C45.9528 7.23689 45.863 7.86403 46.1945 8.30577L47.072 9.47582L44.986 11.0409C44.059 11.7349 43.5408 12.8468 43.6067 14.0031L43.7065 15.804C43.7344 16.2924 43.5156 16.7625 43.1242 17.0555L41.0382 18.6206L36.5191 12.5973C36.0463 11.9569 35.2781 11.604 34.4839 11.6621C33.7263 11.717 33.0493 12.1565 32.6899 12.8262L24.473 28.116H1.00022C0.447694 28.116 0 28.5637 0 29.1162V39.1161C0 39.6686 0.447694 40.1163 1.00022 40.1163H7.99991V48.1162H1.00022C0.447694 48.1162 0 48.5639 0 49.1165V59.1163C0 59.6684 0.447694 60.1161 1.00022 60.1161ZM55.8446 2.31591C56.2859 1.98449 56.9126 2.07375 57.2445 2.5155L57.8002 3.25708C58.1311 3.69882 58.0414 4.32504 57.6001 4.65647L50.1491 10.2462L48.3936 7.90523L55.8446 2.31591ZM18.0002 50.1162H32.0001V58.1161H18.0002V50.1162ZM26.0002 40.1163H40V48.1162H26.0002V40.1163ZM48.0003 58.1161H34.0001V50.1162H48.0003V58.1161ZM56.0003 48.1162H42V40.1163H56.0003V48.1162ZM48.0003 38.1164H34.0001V32.2931L44.2357 30.116H48.0003V38.1164ZM34.4523 13.7738C34.4862 13.7037 34.5567 13.6589 34.6345 13.6566L34.6542 13.6557C34.7604 13.6575 34.8588 13.7101 34.9192 13.7971L39.4374 19.8204L35.312 22.9153C34.8703 23.2468 34.7805 23.8735 35.112 24.3157C35.4434 24.7574 36.0701 24.8467 36.5123 24.5157L40.6377 21.4207L45.1563 27.444C45.2281 27.5319 45.2492 27.6505 45.2112 27.7571C45.1874 27.8313 45.1247 27.8858 45.0478 27.8995L25.2087 32.1183C25.0855 32.1375 24.9619 32.0848 24.891 31.9823C24.8113 31.8862 24.7953 31.7525 24.8498 31.6399L34.4523 13.7738ZM23.2916 33.1826C23.8244 33.9155 24.739 34.2647 25.6248 34.0743L32.0001 32.7184V38.1164H18.0002V30.116H23.3978L23.0878 30.6928C22.6594 31.4907 22.7395 32.4652 23.2916 33.1826ZM1.99998 34.1164H3.99995C4.55248 34.1164 5.00017 33.6687 5.00017 33.1162C5.00017 32.5641 4.55248 32.1164 3.99995 32.1164H1.99998V30.116H16.0003V38.1164H1.99998V34.1164ZM9.99988 40.1163H24.0002V48.1162H9.99988V40.1163ZM1.99998 50.1162H16.0003V58.1161H1.99998V50.1162Z" fill="#3E3E3E"/>
<path d="M13 33.116C13 32.5639 12.5523 32.1162 11.9998 32.1162H7.99988C7.44782 32.1162 7.00012 32.5639 7.00012 33.116C7.00012 33.6685 7.44782 34.1162 7.99988 34.1162H11.9998C12.5523 34.1162 13 33.6685 13 33.116Z" fill="#3E3E3E"/>
</g>
<defs>
<clipPath id="clip0">
<rect width="60" height="60" fill="white"/>
</clipPath>
</defs>
</svg>
